<?xml version="1.0" encoding="UTF-8" standalone="no"?>
<svg
   xmlns:dc="http://purl.org/dc/elements/1.1/"
   xmlns:cc="http://creativecommons.org/ns#"
   xmlns:rdf="http://www.w3.org/1999/02/22-rdf-syntax-ns#"
   xmlns:svg="http://www.w3.org/2000/svg"
   xmlns="http://www.w3.org/2000/svg"
   xmlns:sodipodi="http://sodipodi.sourceforge.net/DTD/sodipodi-0.dtd"
   xmlns:inkscape="http://www.inkscape.org/namespaces/inkscape"
   width="256"
   height="256"
   version="1.1"
   id="svg876"
   sodipodi:docname="restaurant-addon-for-elementor.svg"
   inkscape:version="0.92.3 (2405546, 2018-03-11)">
  <metadata
     id="metadata880">
    <rdf:RDF>
      <cc:Work
         rdf:about="">
        <dc:format>image/svg+xml</dc:format>
        <dc:type
           rdf:resource="http://purl.org/dc/dcmitype/StillImage" />
      </cc:Work>
    </rdf:RDF>
  </metadata>
  <sodipodi:namedview
     pagecolor="#ffffff"
     bordercolor="#666666"
     borderopacity="1"
     objecttolerance="10"
     gridtolerance="10"
     guidetolerance="10"
     inkscape:pageopacity="0"
     inkscape:pageshadow="2"
     inkscape:window-width="2560"
     inkscape:window-height="1377"
     id="namedview878"
     showgrid="false"
     inkscape:zoom="1.84375"
     inkscape:cx="155.98145"
     inkscape:cy="42.817558"
     inkscape:window-x="-8"
     inkscape:window-y="-8"
     inkscape:window-maximized="1"
     inkscape:current-layer="g874" />
  <defs
     id="defs862">
    <linearGradient
       id="a"
       x1="-47.44"
       x2="-18.8"
       y1="259.86"
       y2="235.01"
       gradientTransform="matrix(8.9416 0 0 10.302 424.16 -2380)"
       gradientUnits="userSpaceOnUse">
      <stop
         offset="0"
         stop-color="#2e2975"
         id="stop857" />
      <stop
         offset="1"
         stop-color="#f2295b"
         id="stop859" />
    </linearGradient>
  </defs>
  <g
     transform="translate(0,-41)"
     id="g874">
    <rect
       width="256"
       height="256"
       y="41"
       ry="12.85"
       id="rect864"
       x="0"
       style="fill:url(#a);paint-order:markers stroke fill"
       inkscape:label="background-gradient" />
    <path
       id="path1491"
       style="font-size:40px;line-height:1;text-align:center;text-anchor:middle;display:inline;fill:#ffffff;fill-opacity:1"
       d="m 220.13867,230.28516 c 0.95052,0 1.80339,0.0781 2.5586,0.23437 l -0.44922,3.00781 c -0.88542,-0.19531 -1.66667,-0.29297 -2.34375,-0.29297 -1.73177,0 -3.21615,0.70313 -4.45313,2.10938 -1.22396,1.40625 -1.83594,3.15755 -1.83594,5.25391 v 11.48437 h -3.24218 v -21.40625 h 2.67578 l 0.37109,3.96484 h 0.15625 c 0.79427,-1.39323 1.75131,-2.46744 2.8711,-3.22265 1.11979,-0.75521 2.35025,-1.13281 3.6914,-1.13281 z m -15.42969,11.07421 c 0,3.48959 -0.8789,6.21745 -2.63671,8.1836 -1.75781,1.95313 -4.1862,2.92969 -7.28516,2.92969 -1.91406,0 -3.61328,-0.44922 -5.09766,-1.34766 -1.48437,-0.89844 -2.63021,-2.1875 -3.4375,-3.86719 -0.80729,-1.67969 -1.21093,-3.64583 -1.21093,-5.89844 0,-3.48958 0.87239,-6.20442 2.61718,-8.14453 1.74479,-1.95312 4.16667,-2.92968 7.26563,-2.92968 2.99479,0 5.37109,0.99609 7.1289,2.98828 1.77083,1.99219 2.65625,4.6875 2.65625,8.08593 z m -16.30859,0 c 0,2.73438 0.54688,4.81771 1.64063,6.25 1.09375,1.43229 2.70182,2.14844 4.82421,2.14844 2.1224,0 3.73047,-0.70963 4.82422,-2.1289 1.10677,-1.43229 1.66016,-3.52214 1.66016,-6.26954 0,-2.72135 -0.55339,-4.78515 -1.66016,-6.1914 -1.09375,-1.41927 -2.71484,-2.12891 -4.86328,-2.12891 -2.12239,0 -3.72396,0.69662 -4.80469,2.08985 -1.08073,1.39323 -1.62109,3.47005 -1.62109,6.23046 z m -9.39453,8.4375 c 0.57291,0 1.1263,-0.0391 1.66016,-0.11718 0.53385,-0.0911 0.95703,-0.18229 1.26953,-0.27344 v 2.48047 c -0.35157,0.16927 -0.8724,0.30598 -1.5625,0.41015 -0.67709,0.11719 -1.28907,0.17579 -1.83594,0.17579 -4.14063,0 -6.21094,-2.18099 -6.21094,-6.54297 v -12.73438 h -3.0664 v -1.5625 l 3.0664,-1.34765 1.36719,-4.57032 h 1.875 v 4.96094 h 6.21094 v 2.51953 h -6.21094 v 12.59766 c 0,1.28906 0.30599,2.27864 0.91797,2.96875 0.61198,0.6901 1.45182,1.03515 2.51953,1.03515 z m -16.79688,2.28516 v -13.84766 c 0,-1.74479 -0.39713,-3.04687 -1.1914,-3.90625 -0.79427,-0.85937 -2.03776,-1.28906 -3.73047,-1.28906 -2.23959,0 -3.88021,0.60547 -4.92188,1.81641 -1.04167,1.21093 -1.5625,3.20963 -1.5625,5.99609 v 11.23047 h -3.24218 v -21.40625 h 2.63672 l 0.52734,2.92969 h 0.15625 c 0.66406,-1.05469 1.59505,-1.86849 2.79297,-2.44141 1.19791,-0.58593 2.53255,-0.8789 4.0039,-0.8789 2.57813,0 4.51823,0.625 5.82032,1.875 1.30208,1.23697 1.95312,3.22265 1.95312,5.95703 v 13.96484 z m -28.02734,0.39063 c -3.16406,0 -5.66406,-0.96354 -7.5,-2.89063 -1.82291,-1.92708 -2.73437,-4.60286 -2.73437,-8.02734 0,-3.45052 0.84635,-6.19141 2.53906,-8.22266 1.70573,-2.03125 3.99088,-3.04687 6.85547,-3.04687 2.68229,0 4.80468,0.88542 6.36718,2.65625 1.5625,1.75781 2.34375,4.08202 2.34375,6.97265 v 2.05078 h -14.74609 c 0.0651,2.51302 0.69664,4.42057 1.89453,5.72266 1.21094,1.30208 2.91016,1.95312 5.09766,1.95312 2.30469,0 4.58333,-0.48177 6.83594,-1.44531 v 2.89063 c -1.14583,0.49479 -2.23307,0.84635 -3.26172,1.05468 -1.01563,0.22136 -2.2461,0.33204 -3.69141,0.33204 z M 133.30273,233 c -1.71875,0 -3.09244,0.5599 -4.12109,1.67969 -1.01563,1.11979 -1.61458,2.66926 -1.79687,4.64843 h 11.1914 c 0,-2.04427 -0.45573,-3.60677 -1.36719,-4.6875 C 136.29753,233.54687 134.99544,233 133.30273,233 Z m -18.0664,19.08203 v -13.92578 c 0,-1.70573 -0.36458,-2.98177 -1.09375,-3.82813 -0.72917,-0.85937 -1.86198,-1.28906 -3.39844,-1.28906 -2.01823,0 -3.50911,0.57943 -4.47266,1.73828 -0.96354,1.15885 -1.44531,2.94271 -1.44531,5.35157 v 11.95312 h -3.24219 v -13.92578 c 0,-1.70573 -0.36458,-2.98177 -1.09375,-3.82813 -0.729161,-0.85937 -1.868482,-1.28906 -3.417961,-1.28906 -2.03125,0 -3.522136,0.61198 -4.472657,1.83594 -0.9375,1.21094 -1.40625,3.20313 -1.40625,5.97656 v 11.23047 h -3.242187 v -21.40625 h 2.636719 l 0.527343,2.92969 h 0.15625 c 0.611979,-1.04167 1.471354,-1.85547 2.578125,-2.44141 1.119792,-0.58593 2.369792,-0.8789 3.75,-0.8789 3.346348,0 5.533848,1.21094 6.562498,3.63281 h 0.15625 c 0.63802,-1.11979 1.5625,-2.00521 2.77344,-2.65625 1.21093,-0.65104 2.59114,-0.97656 4.14062,-0.97656 2.42187,0 4.23177,0.625 5.42969,1.875 1.21094,1.23697 1.81641,3.22265 1.81641,5.95703 v 13.96484 z m -40.664061,0.39063 c -3.164063,0 -5.664063,-0.96354 -7.5,-2.89063 -1.822917,-1.92708 -2.734375,-4.60286 -2.734375,-8.02734 0,-3.45052 0.846354,-6.19141 2.539062,-8.22266 1.705729,-2.03125 3.990886,-3.04687 6.855469,-3.04687 2.682291,0 4.804687,0.88542 6.367187,2.65625 1.5625,1.75781 2.34375,4.08202 2.34375,6.97265 v 2.05078 H 67.697269 c 0.06511,2.51302 0.696617,4.42057 1.894531,5.72266 1.210937,1.30208 2.910156,1.95312 5.097656,1.95312 2.304687,0 4.583333,-0.48177 6.835938,-1.44531 v 2.89063 c -1.145833,0.49479 -2.233073,0.84635 -3.261719,1.05468 -1.015625,0.22136 -2.246094,0.33204 -3.691406,0.33204 z M 73.693362,233 c -1.71875,0 -3.092448,0.5599 -4.121093,1.67969 -1.015625,1.11979 -1.614584,2.66926 -1.796875,4.64843 H 78.9668 c 0,-2.04427 -0.455729,-3.60677 -1.367188,-4.6875 C 76.688154,233.54687 75.386071,233 73.693362,233 Z M 58.615237,252.08203 H 55.37305 v -30.39062 h 3.242187 z m -9.101562,0 H 33.595706 v -28.55469 h 15.917969 v 2.94922 H 36.916019 v 9.19922 h 11.835937 v 2.92969 H 36.916019 v 10.50781 H 49.513675 Z M 150.37305,186.28516 c 0.95052,0 1.80338,0.0781 2.55859,0.23437 l -0.44922,3.00781 c -0.88541,-0.19531 -1.66666,-0.29297 -2.34375,-0.29297 -1.73177,0 -3.21614,0.70313 -4.45312,2.10938 -1.22396,1.40625 -1.83594,3.15755 -1.83594,5.25391 v 11.48437 h -3.24219 v -21.40625 h 2.67578 l 0.3711,3.96484 h 0.15625 c 0.79427,-1.39323 1.7513,-2.46744 2.87109,-3.22265 1.11979,-0.75521 2.35026,-1.13281 3.69141,-1.13281 z m -15.42969,11.07421 c 0,3.48959 -0.87891,6.21745 -2.63672,8.1836 -1.75781,1.95313 -4.1862,2.92969 -7.28516,2.92969 -1.91406,0 -3.61328,-0.44922 -5.09765,-1.34766 -1.48437,-0.89844 -2.63021,-2.1875 -3.4375,-3.86719 -0.80729,-1.67969 -1.21094,-3.64583 -1.21094,-5.89844 0,-3.48958 0.8724,-6.20442 2.61719,-8.14453 1.74479,-1.95312 4.16667,-2.92968 7.26562,-2.92968 2.99479,0 5.3711,0.99609 7.12891,2.98828 1.77083,1.99219 2.65625,4.6875 2.65625,8.08593 z m -16.30859,0 c 0,2.73438 0.54687,4.81771 1.64062,6.25 1.09375,1.43229 2.70183,2.14844 4.82422,2.14844 2.12239,0 3.73047,-0.70963 4.82422,-2.1289 1.10677,-1.43229 1.66015,-3.52214 1.66015,-6.26954 0,-2.72135 -0.55338,-4.78515 -1.66015,-6.1914 -1.09375,-1.41927 -2.71485,-2.12891 -4.86328,-2.12891 -2.1224,0 -3.72396,0.69662 -4.80469,2.08985 -1.08073,1.39323 -1.62109,3.47005 -1.62109,6.23046 z m -6.11329,-8.16406 h -5.44921 v 18.88672 h -3.24219 v -18.88672 h -3.82813 v -1.46484 l 3.82813,-1.17188 v -1.1914 c 0,-5.26042 2.29818,-7.89063 6.89453,-7.89063 1.13281,0 2.46094,0.22787 3.98437,0.6836 l -0.83984,2.59765 c -1.25,-0.40365 -2.31771,-0.60547 -3.20312,-0.60547 -1.22396,0 -2.12891,0.41016 -2.71485,1.23047 -0.58593,0.80729 -0.8789,2.10938 -0.8789,3.90625 v 1.38672 h 5.44921 z m 69.02344,-29.11328 v -13.84766 c 0,-1.74479 -0.39713,-3.04687 -1.1914,-3.90625 -0.79427,-0.85937 -2.03776,-1.28906 -3.73047,-1.28906 -2.23959,0 -3.88021,0.60547 -4.92188,1.81641 -1.04167,1.21093 -1.5625,3.20963 -1.5625,5.99609 v 11.23047 h -3.24219 v -21.40625 h 2.63672 l 0.52735,2.92969 h 0.15625 c 0.66406,-1.05469 1.59505,-1.86849 2.79297,-2.44141 1.19791,-0.58593 2.53255,-0.8789 4.0039,-0.8789 2.57813,0 4.51823,0.625 5.82031,1.875 1.30209,1.23697 1.95313,3.22265 1.95313,5.95703 v 13.96484 z m -20.3125,-10.72266 c 0,3.48959 -0.87891,6.21745 -2.63672,8.1836 -1.75781,1.95313 -4.1862,2.92969 -7.28515,2.92969 -1.91407,0 -3.61329,-0.44922 -5.09766,-1.34766 -1.48437,-0.89844 -2.63021,-2.1875 -3.4375,-3.86719 -0.80729,-1.67969 -1.21094,-3.64583 -1.21094,-5.89844 0,-3.48958 0.8724,-6.20442 2.61719,-8.14453 1.74479,-1.95312 4.16667,-2.92968 7.26563,-2.92968 2.99479,0 5.37109,0.99609 7.1289,2.98828 1.77083,1.99219 2.65625,4.6875 2.65625,8.08593 z m -16.30859,0 c 0,2.73438 0.54687,4.81771 1.64062,6.25 1.09375,1.43229 2.70183,2.14844 4.82422,2.14844 2.1224,0 3.73047,-0.70963 4.82422,-2.1289 1.10677,-1.43229 1.66016,-3.52214 1.66016,-6.26954 0,-2.72135 -0.55339,-4.78515 -1.66016,-6.1914 -1.09375,-1.41927 -2.71484,-2.12891 -4.86328,-2.12891 -2.12239,0 -3.72396,0.69662 -4.80469,2.08985 -1.08073,1.39323 -1.62109,3.47005 -1.62109,6.23046 z m -12.12891,7.85157 h -0.17578 c -1.49739,2.17448 -3.73698,3.26172 -6.71875,3.26172 -2.79948,0 -4.98047,-0.95703 -6.54297,-2.8711 -1.54948,-1.91406 -2.32422,-4.63541 -2.32422,-8.16406 0,-3.52865 0.78125,-6.26953 2.34375,-8.22266 1.5625,-1.95312 3.73698,-2.92968 6.52344,-2.92968 2.90365,0 5.13021,1.05469 6.67969,3.16406 h 0.2539 l -0.13671,-1.54297 -0.0781,-1.50391 v -8.71093 h 3.24219 v 30.39062 h -2.63672 z m -6.48437,0.54687 c 2.21354,0 3.8151,-0.59896 4.80468,-1.79687 1.00261,-1.21094 1.50391,-3.15756 1.50391,-5.83985 v -0.68359 c 0,-3.03385 -0.50781,-5.19531 -1.52344,-6.48438 C 130.0931,141.65104 128.48503,141 126.27148,141 c -1.90104,0 -3.35937,0.74219 -4.375,2.22656 -1.0026,1.47135 -1.5039,3.55469 -1.5039,6.25 0,2.73437 0.5013,4.79818 1.5039,6.19141 1.00261,1.39323 2.47396,2.08984 4.41407,2.08984 z m -18.04688,-0.54687 h -0.17578 c -1.49739,2.17448 -3.73698,3.26172 -6.71875,3.26172 -2.799476,0 -4.980465,-0.95703 -6.542965,-2.8711 -1.549479,-1.91406 -2.324219,-4.63541 -2.324219,-8.16406 0,-3.52865 0.78125,-6.26953 2.34375,-8.22266 1.5625,-1.95312 3.736979,-2.92968 6.523434,-2.92968 2.90365,0 5.13021,1.05469 6.67969,3.16406 h 0.2539 l -0.13671,-1.54297 -0.0781,-1.50391 v -8.71093 h 3.24219 v 30.39062 h -2.63672 z m -6.48437,0.54687 c 2.21354,0 3.8151,-0.59896 4.80468,-1.79687 1.00261,-1.21094 1.50391,-3.15756 1.50391,-5.83985 v -0.68359 c 0,-3.03385 -0.50781,-5.19531 -1.52344,-6.48438 C 105.56185,141.65104 103.95378,141 101.74023,141 c -1.901036,0 -3.359368,0.74219 -4.374993,2.22656 -1.002604,1.47135 -1.503906,3.55469 -1.503906,6.25 0,2.73437 0.501302,4.79818 1.503906,6.19141 1.002605,1.39323 2.47396,2.08984 4.414063,2.08984 z M 86.818362,160.08203 83.263675,151 H 71.818362 l -3.515625,9.08203 h -3.359375 l 11.289063,-28.67187 h 2.792969 l 11.230468,28.67187 z m -4.589843,-12.07031 -3.320313,-8.84766 c -0.429687,-1.11979 -0.872396,-2.49349 -1.328125,-4.12109 -0.286458,1.25 -0.696614,2.6237 -1.230469,4.12109 l -3.359375,8.84766 z M 224.9043,111.79688 c 0.57291,0 1.1263,-0.0391 1.66015,-0.11719 0.53385,-0.0911 0.95703,-0.18229 1.26953,-0.27344 v 2.48047 c -0.35156,0.16927 -0.87239,0.30599 -1.5625,0.41016 -0.67708,0.11719 -1.28906,0.17578 -1.83593,0.17578 -4.14063,0 -6.21094,-2.18099 -6.21094,-6.54297 V 95.195308 h -3.06641 v -1.5625 l 3.06641,-1.347656 1.36719,-4.570312 h 1.875 v 4.960937 h 6.21093 v 2.519531 h -6.21093 v 12.597662 c 0,1.28906 0.30599,2.27864 0.91797,2.96875 0.61197,0.69011 1.45182,1.03516 2.51953,1.03516 z m -16.79688,2.28515 v -13.84766 c 0,-1.74479 -0.39713,-3.04687 -1.1914,-3.906249 -0.79427,-0.859375 -2.03776,-1.289063 -3.73047,-1.289063 -2.23959,0 -3.88021,0.605469 -4.92188,1.816407 -1.04167,1.210935 -1.5625,3.209635 -1.5625,5.996095 v 11.23047 h -3.24219 V 92.675777 h 2.63672 l 0.52735,2.929688 h 0.15625 c 0.66406,-1.054688 1.59505,-1.86849 2.79297,-2.441407 1.19791,-0.585937 2.53255,-0.878906 4.0039,-0.878906 2.57813,0 4.51823,0.625 5.82031,1.875 1.30209,1.236979 1.95313,3.222658 1.95313,5.957038 v 13.96484 z m -23.75,0 -0.64453,-3.04687 h -0.15625 c -1.06771,1.34115 -2.13541,2.2526 -3.20312,2.73437 -1.05469,0.46875 -2.37631,0.70313 -3.96485,0.70313 -2.12239,0 -3.78906,-0.54688 -5,-1.64063 -1.19791,-1.09375 -1.79687,-2.64974 -1.79687,-4.66797 0,-4.32292 3.45703,-6.58854 10.37109,-6.79687 L 183.5957,101.25 v -1.32813 c 0,-1.67968 -0.36458,-2.91666 -1.09375,-3.710937 -0.71615,-0.807291 -1.86849,-1.210937 -3.45703,-1.210937 -1.78385,0 -3.80208,0.546875 -6.05469,1.640625 l -0.99609,-2.480469 c 1.05469,-0.572917 2.20703,-1.022135 3.45703,-1.347656 1.26302,-0.325521 2.52604,-0.488281 3.78906,-0.488281 2.55209,0 4.44011,0.566406 5.66407,1.699218 1.23698,1.132813 1.85547,2.949219 1.85547,5.449217 v 14.60938 z m -7.32422,-2.28515 c 2.01823,0 3.60027,-0.55339 4.7461,-1.66016 1.15885,-1.10677 1.73828,-2.65625 1.73828,-4.64844 v -1.93359 l -3.24219,0.13671 c -2.57813,0.0911 -4.44011,0.4948 -5.58594,1.21094 -1.13281,0.70313 -1.69922,1.80339 -1.69922,3.30079 0,1.17187 0.35156,2.0638 1.05469,2.67578 0.71615,0.61198 1.71224,0.91797 2.98828,0.91797 z M 164.63086,92.285152 c 0.95052,0 1.80338,0.07813 2.55859,0.234375 l -0.44922,3.007813 c -0.88541,-0.195313 -1.66666,-0.292969 -2.34375,-0.292969 -1.73177,0 -3.21614,0.703125 -4.45312,2.109379 -1.22396,1.40625 -1.83594,3.15755 -1.83594,5.2539 v 11.48438 h -3.24219 V 92.675777 h 2.67579 l 0.37109,3.964844 h 0.15625 c 0.79427,-1.393229 1.7513,-2.467448 2.87109,-3.222656 1.11979,-0.755209 2.35026,-1.132813 3.69141,-1.132813 z m -31.25,0.390625 V 106.5625 c 0,1.74479 0.39714,3.04688 1.19141,3.90625 0.79427,0.85937 2.03775,1.28906 3.73046,1.28906 2.23959,0 3.8737,-0.61198 4.90235,-1.83593 1.04167,-1.22396 1.5625,-3.22266 1.5625,-5.9961 V 92.675777 h 3.24219 v 21.406253 h -2.67579 l -0.46875,-2.87109 h -0.17578 c -0.66406,1.05469 -1.58854,1.86198 -2.77343,2.42187 -1.17188,0.5599 -2.51303,0.83985 -4.02344,0.83985 -2.60417,0 -4.55729,-0.61849 -5.85938,-1.85547 -1.28906,-1.23698 -1.93359,-3.21615 -1.93359,-5.9375 V 92.675777 Z m -12.14844,21.406253 -0.64453,-3.04687 h -0.15625 c -1.06771,1.34115 -2.13541,2.2526 -3.20312,2.73437 -1.05469,0.46875 -2.37631,0.70313 -3.96485,0.70313 -2.12239,0 -3.78906,-0.54688 -5,-1.64063 -1.19791,-1.09375 -1.79687,-2.64974 -1.79687,-4.66797 0,-4.32292 3.45703,-6.58854 10.37109,-6.79687 L 120.4707,101.25 v -1.32813 c 0,-1.67968 -0.36458,-2.91666 -1.09375,-3.710937 -0.71615,-0.807291 -1.86849,-1.210937 -3.45703,-1.210937 -1.78385,0 -3.80208,0.546875 -6.05469,1.640625 l -0.99609,-2.480469 c 1.05469,-0.572917 2.20703,-1.022135 3.45703,-1.347656 1.26302,-0.325521 2.52604,-0.488281 3.78906,-0.488281 2.55209,0 4.44011,0.566406 5.66407,1.699218 1.23698,1.132813 1.85547,2.949219 1.85547,5.449217 v 14.60938 z m -7.32422,-2.28515 c 2.01823,0 3.60027,-0.55339 4.7461,-1.66016 1.15885,-1.10677 1.73828,-6.64063 1.73828,-4.64844 v -1.93359 l -3.24219,0.13671 c -2.57813,0.0911 -4.44011,0.4948 -5.58594,1.21094 -1.13281,0.70313 -1.69922,1.80339 -1.69922,3.30079 0,1.17187 0.35156,2.0638 1.05469,2.67578 0.71615,0.61198 1.71224,0.91797 2.98828,0.91797 z m -13.0664,0 c 0.57291,0 1.1263,-0.0391 1.66015,-0.11719 0.53385,-0.0911 0.95703,-0.18229 1.26953,-0.27344 v 2.48047 c -0.35156,0.16927 -0.87239,0.30599 -1.5625,0.41016 -0.67708,0.11719 -1.28906,0.17578 -1.83593,0.17578 -4.140624,0 -6.210938,-2.18099 -6.210938,-6.54297 V 95.195308 h -3.066406 v -1.5625 L 94.162112,92.285152 95.5293,87.71484 h 1.875 v 4.960937 h 6.21093 v 2.519531 H 97.4043 v 12.597662 c 0,1.28906 0.30599,2.27864 0.917969,2.96875 0.611979,0.69011 1.451823,1.03516 2.519531,1.03516 z m -12.167969,-3.55469 c 0,1.99219 -0.742187,3.52864 -2.226562,4.60937 -1.484375,1.08073 -3.567709,1.6211 -6.25,1.6211 -2.838542,0 -5.052084,-0.44922 -6.640625,-1.34766 v -3.00781 c 1.028645,0.52083 2.128906,0.93099 3.300781,1.23047 1.184896,0.29948 2.324219,0.44922 3.417969,0.44922 1.692708,0 2.994791,-0.26693 3.90625,-0.80079 0.911458,-0.54687 1.367187,-1.37369 1.367187,-2.48046 0,-0.83333 -0.364583,-1.54297 -1.09375,-2.12891 -0.716146,-0.59896 -2.122396,-1.30209 -4.21875,-2.10938 -1.992187,-0.74219 -3.411458,-1.38672 -4.257812,-1.93359 -0.833333,-0.5599 -1.458333,-1.19141 -1.875,-1.89453 -0.403646,-0.70313 -0.605469,-1.54297 -0.605469,-2.51954 0,-1.744788 0.709635,-3.118486 2.128906,-4.12109 1.419271,-1.015625 3.365885,-1.523438 5.839844,-1.523438 2.304687,0 4.557291,0.46875 6.757812,1.40625 l -1.152343,2.636719 c -2.148438,-0.885417 -4.095053,-1.328125 -5.839844,-1.328125 -1.536459,0 -2.695313,0.240885 -3.476563,0.722656 -0.78125,0.481771 -1.171875,1.145833 -1.171875,1.992188 0,0.57292 0.143229,1.0612 0.429688,1.46485 0.299479,0.40364 0.77474,0.78776 1.425781,1.15234 0.651042,0.36458 1.901042,0.89193 3.75,1.58203 2.539063,0.92448 4.251302,1.85547 5.136719,2.79297 0.898437,0.9375 1.347656,2.11589 1.347656,3.53516 z m -27.1875,6.23047 c -3.164063,0 -5.664063,-0.96354 -7.5,-2.89063 -1.822917,-1.92708 -2.734375,-4.60286 -2.734375,-8.02734 0,-3.45053 0.634579,-6.0775 2.539063,-8.222663 1.660232,-1.870043 3.990885,-3.046875 6.855468,-3.046875 2.682292,0 4.804688,0.885417 6.367188,2.65625 1.5625,1.757813 2.34375,4.082038 2.34375,6.972658 v 2.05078 H 54.611331 c 0.06511,2.51303 0.696617,4.42058 1.894531,5.72266 1.210938,1.30209 2.910157,1.95313 5.097657,1.95313 2.304687,0 4.583333,-0.48177 6.835937,-1.44532 v 2.89063 c -1.145833,0.49479 -2.233073,0.84636 -3.261719,1.05469 -1.015625,0.22135 -2.246093,0.33203 -3.691406,0.33203 z M 60.607425,94.999996 c -1.71875,0 -3.092448,0.559896 -4.121094,1.679687 -1.015625,1.119797 -1.614583,2.669277 -1.796875,4.648437 h 11.191406 c 0,-2.04427 -0.455729,-3.60677 -1.367187,-4.687499 -0.911459,-1.09375 -2.213542,-1.640625 -3.90625,-1.640625 z m -29.121094,7.207034 v 11.875 H 28.166019 V 85.52734 h 7.832031 c 3.502604,0 6.087239,0.670573 7.753906,2.011718 1.679687,1.341146 2.519531,3.359375 2.519531,6.054688 0,3.776044 -7.619431,4.065374 -5.742187,7.656254 l 7.753906,12.83203 h -3.925781 l -6.914063,-11.875 z m 0,-2.85156 h 4.550781 c 2.34375,0 4.0625,-0.46224 5.15625,-1.38672 1.09375,-0.9375 1.640625,-2.337244 1.640625,-4.199223 0,-1.888021 -0.559896,-3.248698 -1.679687,-4.082031 -1.106771,-0.833333 -3.118671,-2.284607 -5.351563,-1.25 h -4.316406 z"
       inkscape:connector-curvature="0"
       inkscape:label="text"
       sodipodi:nodetypes="sccscscccccccsscsccscscsscscscssssccccssccccccccccscscscscscccccccscsccscscscscccscccssccccscscscsccscscscccccccscccscsccscscscscccscccssccccsccccccccccccccccccsccscsccccccssscsssscscsssscscscsccccccccssccscsccccscscscccccccscsccscsssscscsssscscsssccscscscccccccccscsscscscsccscscscccccccccscsscscscscccccccccccccccsccccssccccccccccscscscssscccccccscsccccccscsccscscccscsccscscccscssccscscccccccscscscscccccccscsccccccscsccscscccscsccscscccscssccccssccccccccccsssscscccscsccccscsccssscsccsscsascscccscccssccccsccccscsscccccscscscc" />
  </g>
</svg>
